# Blender 4.1.1
# www.blender.org
mtllib Green Tree 2.mtl
o Plane
v 13.550709 18.778522 16.256554
v 13.550709 3.185752 16.256554
v 22.321270 18.778522 21.358601
v 22.321270 3.185752 21.358601
v 15.384966 18.778521 23.192858
v 15.384966 3.185753 23.192858
v 20.487013 18.778521 14.422297
v 20.487013 3.185753 14.422297
v 12.950398 18.778521 19.746880
v 12.950398 3.185753 19.746880
v 22.921581 18.778521 17.868275
v 22.921581 3.185753 17.868275
v 18.705715 18.778521 23.822149
v 18.705715 3.185753 23.822149
v 17.166264 18.778521 13.793005
v 17.166264 3.185753 13.793005
vn -0.5028 -0.0000 0.8644
vn 0.8644 -0.0000 0.5028
vn 0.1851 -0.0000 0.9827
vn 0.9884 -0.0000 -0.1517
vt 0.387102 0.984313
vt 0.395175 0.049216
vt 0.006601 0.052599
vt 0.010303 0.982774
s 0
usemtl Fooliage_1
f 1/1/1 2/2/1 4/3/1 3/4/1
f 5/1/2 6/2/2 8/3/2 7/4/2
f 9/1/3 10/2/3 12/3/3 11/4/3
f 13/1/4 14/2/4 16/3/4 15/4/4
o Trunk
v 18.708494 0.000000 19.256962
v 18.602097 0.000000 18.211750
v 17.575163 0.000000 17.989952
v 17.046879 0.000000 18.898085
v 17.747316 0.000000 19.681139
v 18.208727 3.711940 19.135765
v 18.145609 3.711940 18.515720
v 17.536406 3.711940 18.384144
v 17.223015 3.711940 18.922871
v 17.638533 3.711940 19.387398
v 17.996788 15.392708 18.842945
v 17.988415 15.392708 18.760683
v 17.907591 15.392708 18.743227
v 17.866013 15.392708 18.814701
v 17.921141 15.392708 18.876329
vn -0.4023 -0.0839 -0.9116
vn 0.8635 -0.0443 0.5023
vn -0.9865 -0.1295 0.1004
vn 0.7450 -0.0309 -0.6664
vn -0.2099 -0.1054 0.9720
vn -0.2111 -0.0233 0.9772
vn -0.4036 -0.0302 -0.9145
vn 0.8636 -0.0429 0.5024
vn -0.9947 -0.0155 0.1013
vn 0.7445 -0.0472 -0.6660
vn -0.0000 -1.0000 -0.0000
vn -0.0000 1.0000 -0.0000
vt 0.504794 1.000000
vt 0.406164 1.000000
vt 0.426224 0.745734
vt 0.484734 0.745734
vt 0.899314 1.000000
vt 0.800684 1.000000
vt 0.820744 0.745734
vt 0.879254 0.745734
vt 0.603424 1.000000
vt 0.524854 0.745734
vt 0.583364 0.745734
vt 0.702054 1.000000
vt 0.623484 0.745734
vt 0.681994 0.745734
vt 0.800684 1.000000
vt 0.722114 0.745734
vt 0.780623 0.745734
vt 0.747488 0.000000
vt 0.755250 0.000000
vt 0.451597 0.000000
vt 0.459360 0.000000
vt 0.846117 0.000000
vt 0.853880 0.000000
vt 0.550228 0.000000
vt 0.557990 0.000000
vt 0.648857 0.000000
vt 0.656620 0.000000
vt 0.903729 0.184475
vt 0.906458 0.191734
vt 0.903729 0.198994
vt 0.899314 0.196221
vt 0.899314 0.187248
vt 0.955420 0.000000
vt 0.990095 0.092237
vt 0.955420 0.184475
vt 0.899314 0.149243
vt 0.899314 0.035232
s 0
usemtl Fooliage_1
f 17/5/5 21/6/5 26/7/5 22/8/5
f 20/9/6 19/10/6 24/11/6 25/12/6
f 18/13/7 17/5/7 22/14/7 23/15/7
f 21/16/8 20/13/8 25/17/8 26/18/8
f 19/19/9 18/16/9 23/20/9 24/21/9
f 24/21/10 23/20/10 28/22/10 29/23/10
f 22/8/11 26/7/11 31/24/11 27/25/11
f 25/12/12 24/11/12 29/26/12 30/27/12
f 23/15/13 22/14/13 27/28/13 28/29/13
f 26/18/14 25/17/14 30/30/14 31/31/14
f 28/32/15 27/33/15 31/34/15 30/35/15 29/36/15
f 21/37/16 17/38/16 18/39/16 19/40/16 20/41/16
