# Blender 4.1.1
# www.blender.org
mtllib Sakura Bush.mtl
o Bush_2
v 22.633429 1.268180 -5.586280
v 22.633429 6.144611 -5.586280
v 16.595419 1.268180 1.393343
v 16.595419 6.144611 1.393343
v 14.999970 1.268180 -2.096469
v 14.999970 6.144611 -2.096469
v 24.228878 1.268180 -2.096469
v 24.228878 6.144611 -2.096469
v 19.614424 1.268180 2.517985
v 19.614424 6.144611 2.517985
v 19.614424 1.268180 -6.710922
v 19.614424 6.144611 -6.710922
v 22.747671 1.268180 1.291146
v 22.747671 6.144611 1.291146
v 16.481174 1.268180 -5.484083
v 16.481174 6.144611 -5.484083
vn -0.7563 -0.0000 -0.6542
vn -0.0000 -0.0000 1.0000
vn 1.0000 -0.0000 -0.0000
vn 0.7341 -0.0000 -0.6790
vt 0.000000 0.000000
vt 0.699422 0.000000
vt 0.699422 1.000000
vt 0.000000 1.000000
s 0
usemtl Texture_4
f 1/1/1 3/2/1 4/3/1 2/4/1
f 5/1/2 7/2/2 8/3/2 6/4/2
f 9/1/3 11/2/3 12/3/3 10/4/3
f 13/1/4 15/2/4 16/3/4 14/4/4
