# Blender 4.1.1
# www.blender.org
mtllib Green Bush 3.mtl
o Grass.001
v 1.145107 -0.124290 0.391494
v 1.588955 3.807894 -1.278074
v 1.616034 5.085328 1.210620
v 1.615825 0.691166 1.191433
v 2.284014 1.441011 1.824418
v 1.621024 2.334210 1.669249
v 1.627774 3.164433 2.289634
v 1.630913 3.733186 2.578118
v 1.628693 3.897231 2.374134
v 1.627378 4.556409 2.253269
v 1.619617 4.767821 1.539950
v 0.762795 1.515747 -0.310629
vn 0.9868 -0.0693 -0.1465
vn 0.8352 -0.1155 -0.5377
vt 1.000000 0.442900
vt 0.708532 0.461270
vt 0.690230 0.417626
vt 0.631100 0.368351
vt 0.646586 0.300773
vt 0.633916 0.276840
vt 0.684599 0.234604
vt 0.777517 0.181105
vt 0.798636 0.089594
vt 1.000000 0.184725
vt 0.890146 0.044543
vt 1.000000 0.000000
s 0
usemtl Grass
f 2/1/1 3/2/1 11/3/1 10/4/1 9/5/1 8/6/1 7/7/1 6/8/1 5/9/1 12/10/1
f 12/10/2 5/9/2 4/11/2 1/12/2
