# Blender 4.1.1
# www.blender.org
mtllib Green Tree.mtl
o Plane.002
v 23.784771 34.448551 49.383377
v 23.784771 8.926979 49.383377
v 23.784771 34.448551 32.775848
v 23.784771 8.926979 32.775848
v 32.088535 34.448551 41.079613
v 32.088535 8.926980 41.079613
v 15.481007 34.448551 41.079613
v 15.481007 8.926980 41.079613
v 29.216902 34.448551 47.360096
v 29.216902 8.926980 47.360096
v 18.352640 34.448551 34.799129
v 18.352640 8.926980 34.799129
v 30.245819 34.448551 35.863544
v 30.245819 8.926980 35.863544
v 17.323723 34.448551 46.295681
v 17.323723 8.926980 46.295681
vn 1.0000 -0.0000 -0.0000
vn -0.0000 -0.0000 -1.0000
vn 0.7563 -0.0000 -0.6542
vn -0.6282 -0.0000 -0.7781
vt 0.387102 0.996032
vt 0.395175 0.008911
vt 0.006601 0.012293
vt 0.010303 0.994493
s 0
usemtl Fooliage_3
f 1/1/1 2/2/1 4/3/1 3/4/1
f 5/1/2 6/2/2 8/3/2 7/4/2
f 9/1/3 10/2/3 12/3/3 11/4/3
f 13/1/4 14/2/4 16/3/4 15/4/4
o Trunk.002
v 23.784771 0.000000 40.185905
v 22.934807 0.000000 40.803440
v 23.259464 0.000000 41.802631
v 24.310078 0.000000 41.802631
v 24.634735 0.000000 40.803440
v 23.931311 3.711940 40.678837
v 23.427092 3.711940 41.045174
v 23.619686 3.711940 41.637920
v 24.242935 3.711940 41.637920
v 24.435530 3.711940 41.045174
v 23.784771 15.096608 40.876389
v 23.717876 15.096608 41.016811
v 23.743427 15.096608 41.244015
v 23.826115 15.096608 41.244015
v 23.851665 15.096608 41.016811
vn -0.5857 -0.0839 0.8062
vn -0.0000 -0.0443 -0.9990
vn 0.5828 -0.1295 0.8022
vn -0.9506 -0.0309 -0.3089
vn 0.9458 -0.1054 -0.3073
vn 0.9661 -0.0224 -0.2570
vn -0.6635 -0.0268 0.7477
vn -0.0000 -0.0346 -0.9994
vn 0.6637 -0.0098 0.7480
vn -0.9653 -0.0472 -0.2568
vn -0.0000 -1.0000 -0.0000
vn -0.0000 1.0000 -0.0000
vt 0.504794 1.000000
vt 0.406164 1.000000
vt 0.426224 0.745734
vt 0.484734 0.745734
vt 0.899314 1.000000
vt 0.800684 1.000000
vt 0.820744 0.745734
vt 0.879254 0.745734
vt 0.603424 1.000000
vt 0.524854 0.745734
vt 0.583364 0.745734
vt 0.702054 1.000000
vt 0.623484 0.745734
vt 0.681994 0.745734
vt 0.800684 1.000000
vt 0.722114 0.745734
vt 0.780623 0.745734
vt 0.747488 0.000000
vt 0.755250 0.000000
vt 0.451597 0.000000
vt 0.459360 0.000000
vt 0.846117 0.000000
vt 0.853880 0.000000
vt 0.550228 0.000000
vt 0.557990 0.000000
vt 0.648857 0.000000
vt 0.656620 0.000000
vt 0.903729 0.184475
vt 0.906458 0.191734
vt 0.903729 0.198994
vt 0.899314 0.196221
vt 0.899314 0.187248
vt 0.955420 0.000000
vt 0.990095 0.092237
vt 0.955420 0.184475
vt 0.899314 0.149243
vt 0.899314 0.035232
s 0
usemtl Fooliage_3
f 17/5/5 21/6/5 26/7/5 22/8/5
f 20/9/6 19/10/6 24/11/6 25/12/6
f 18/13/7 17/5/7 22/14/7 23/15/7
f 21/16/8 20/13/8 25/17/8 26/18/8
f 19/19/9 18/16/9 23/20/9 24/21/9
f 24/21/10 23/20/10 28/22/10 29/23/10
f 22/8/11 26/7/11 31/24/11 27/25/11
f 25/12/12 24/11/12 29/26/12 30/27/12
f 23/15/13 22/14/13 27/28/13 28/29/13
f 26/18/14 25/17/14 30/30/14 31/31/14
f 28/32/15 27/33/15 31/34/15 30/35/15 29/36/15
f 21/37/16 17/38/16 18/39/16 19/40/16 20/41/16
